# xmcd
#
# Track frame offsets:
#	150
#	12694
#	27273
#	46600
#	64806
#	79417
#	94247
#	106052
#	118598
#	131447
#	147430
#	159963
#
# Disc length: 2367 seconds
#
# Revision: 1
# Processed by: cddbd v1.5.2PL0 Copyright (c) Steve Scherf et al.
# Submitted via: EZCDAudioConverter 8.0.2.1
#
DISCID=9a093d0c
DTITLE=Various Artist - Dạ Vũ. Màu Xanh Tình Yêu
DYEAR=2009
DGENRE=
TTITLE0=Lưu Bích - I Wanna Dance Cha Cha
TTITLE1=Như Loan - Màu Xanh Tình Yêu
TTITLE2=Nguyệt Anh - A Time For Us
TTITLE3=Trần Thu Hà - Tequila
TTITLE4=Tommy Ngô - Tình
TTITLE5=Thanh Tuyền - Kiếp nghèo
TTITLE6=Hồ Lệ Thu - Đoàn lữ nhạc
TTITLE7=Thế Sơn - Kim
TTITLE8=Trịnh Hội - Sầu đông
TTITLE9=Tú Quyên - Vết son trên áo
TTITLE10=Chí Tài - Hương
TTITLE11=Tuấn Hùng, Thùy Vân - Lambada
EXTD=
EXTT0=
EXTT1=
EXTT2=
EXTT3=
EXTT4=
EXTT5=
EXTT6=
EXTT7=
EXTT8=
EXTT9=
EXTT10=
EXTT11=
PLAYORDER=
